<?xml version="1.0" encoding="UTF-8" standalone="no"?>
<svg xmlns="http://www.w3.org/2000/svg" width="60" height="60" viewBox="0 0 60 60" fill="none">
  <!-- Combined car silhouette and Cyprus map for favicon -->
  <circle cx="30" cy="30" r="28" fill="#1e88e5"/>
  
  <!-- Car silhouette centered inside circle -->
  <path d="M26 33c0 1.1-0.9 2-2 2h-2c-1.1 0-2-0.9-2-2v-1c0-1.1 0.9-2 2-2h2c1.1 0 2 0.9 2 2v1z" fill="#333333"/>
  <path d="M40 33c0 1.1-0.9 2-2 2h-2c-1.1 0-2-0.9-2-2v-1c0-1.1 0.9-2 2-2h2c1.1 0 2 0.9 2 1v2z" fill="#333333"/>
  <path d="M15 26l5-10h20l5 10l3 1v8h-5v-1c0-2.2-1.8-4-4-4s-4 1.8-4 4v1h-10v-1c0-2.2-1.8-4-4-4s-4 1.8-4 4v1h-5v-8l3-1z" fill="white"/>
  
  <!-- Letter C in bold -->
  <path d="M47 30c0 3-2.5 5-5.5 5c-3.5 0-5.5-2-5.5-5s2-5 5.5-5c2.5 0 4.5 1 5 3l-2 1c-0.5-1-1.5-2-3-2c-2 0-3.5 1-3.5 3s1.5 3 3.5 3c1.5 0 2.5-1 3-2l2 1c-0.5 2-2.5 3-5 3z" fill="white"/>
</svg>