<?xml version="1.0" encoding="UTF-8" standalone="no"?>
<svg xmlns="http://www.w3.org/2000/svg" width="220" height="50" viewBox="0 0 220 50" fill="none">
  <g>
    <!-- Car silhouette with Cyprus map -->
    <circle cx="25" cy="25" r="23" fill="#1e88e5"/>
    
    <!-- Car silhouette centered inside circle -->
    <path d="M22 28c0 1.1-0.9 2-2 2h-2c-1.1 0-2-0.9-2-2v-1c0-1.1 0.9-2 2-2h2c1.1 0 2 0.9 2 2v1z" fill="#333333"/>
    <path d="M34 28c0 1.1-0.9 2-2 2h-2c-1.1 0-2-0.9-2-2v-1c0-1.1 0.9-2 2-2h2c1.1 0 2 0.9 2 1v2z" fill="#333333"/>
    <path d="M12 22l4-8h18l4 8l2 1v7h-4v-1c0-2.2-1.8-4-4-4s-4 1.8-4 4v1h-6v-1c0-2.2-1.8-4-4-4s-4 1.8-4 4v1h-4v-7l2-1z" fill="white"/>
    
    <!-- Letter C in bold -->
    <path d="M40 25c0 3-2.5 5-5.5 5c-3.5 0-5.5-2-5.5-5s2-5 5.5-5c2.5 0 4.5 1 5 3l-2 1c-0.5-1-1.5-2-3-2c-2 0-3.5 1-3.5 3s1.5 3 3.5 3c1.5 0 2.5-1 3-2l2 1c-0.5 2-2.5 3-5 3z" fill="white"/>
    
    <!-- Text: carmarkt.com.cy -->
    <path d="M60 32c-3 0-5.5-2.5-5.5-6s2.5-6 5.5-6c2.5 0 4.5 1.5 5 4l-2 0.5c-0.5-1.5-1.5-2.5-3-2.5-2 0-3.5 1.5-3.5 4s1.5 4 3.5 4c1.5 0 2.5-1 3-2.5l2 0.5c-0.5 2.5-2.5 4-5 4zM77 32h-2l-1-3h-5l-1 3h-2l4.5-12h2l4.5 12zM74 27l-2-5.5l-2 5.5h4zM83 32c-3 0-5-2-5-5s2-5 5-5c3 0 5 2 5 5s-2 5-5 5zM83 30c2 0 3-1.5 3-3s-1-3-3-3s-3 1.5-3 3s1 3 3 3zM99 32h-2v-1c-0.5 0.5-1.5 1-2.5 1c-2.5 0-4.5-2-4.5-5s2-5 4.5-5c1 0 2 0.5 2.5 1v-3h2v12zM95 30c1.5 0 2.5-1 2.5-3s-1-3-2.5-3s-2.5 1-2.5 3s1 3 2.5 3zM111 32h-2v-1c-0.5 0.5-1.5 1-2.5 1c-2.5 0-4.5-2-4.5-5s2-5 4.5-5c1 0 2 0.5 2.5 1v-3h2v12zM107 30c1.5 0 2.5-1 2.5-3s-1-3-2.5-3s-2.5 1-2.5 3s1 3 2.5 3zM117 32h-2v-10h2v10zM117 20h-2v-2h2v2zM126 32h-2v-1c-0.5 0.5-1.5 1-2.5 1c-2 0-3.5-1-3.5-3c0-2.5 2-3 3.5-3c1 0 2 0.5 2.5 1v-1c0-1-1-1.5-2-1.5c-1 0-1.5 0.5-2 1l-1.5-1c0.5-1 2-2 3.5-2c2 0 4 1 4 3.5v6zM122 30c1 0 2-0.5 2-1.5v-0.5c0-1-1-1.5-2-1.5c-1 0-2 0.5-2 1.5s1 2 2 2zM136 32h-2v-5.5c0-1-0.5-2-2-2c-1 0-2 1-2 2v5.5h-2v-10h2v1c0.5-0.5 1.5-1 2.5-1c2 0 3.5 1.5 3.5 3.5v6.5zM151 32h-2v-5.5c0-1-0.5-2-2-2c-1 0-2 1-2 2v5.5h-2v-10h2v1c0.5-0.5 1.5-1 2.5-1c2 0 3.5 1.5 3.5 3.5v6.5zM158 20h-2v-2h2v2zM158 32h-2v-10h2v10zM169 22h3.5v2h-3.5v4c0 1 0.5 1.5 1.5 1.5c0.5 0 1 0 1.5-0.5l0.5 1.5c-0.5 0.5-1.5 0.5-2.5 0.5c-2 0-3-1-3-3v-4h-2v-2h2v-3h2v3zM184 32h-2v-1c-0.5 0.5-1.5 1-2.5 1c-2.5 0-4.5-2-4.5-5s2-5 4.5-5c1 0 2 0.5 2.5 1v-3h2v12zM180 30c1.5 0 2.5-1 2.5-3s-1-3-2.5-3s-2.5 1-2.5 3s1 3 2.5 3zM193 32h-2v-1c-0.5 0.5-1.5 1-2.5 1c-2 0-3.5-1-3.5-3c0-2.5 2-3 3.5-3c1 0 2 0.5 2.5 1v-1c0-1-1-1.5-2-1.5c-1 0-1.5 0.5-2 1l-1.5-1c0.5-1 2-2 3.5-2c2 0 4 1 4 3.5v6zM189 30c1 0 2-0.5 2-1.5v-0.5c0-1-1-1.5-2-1.5c-1 0-2 0.5-2 1.5s1 2 2 2zM195 28h2v1c0 1 0.5 1 1 1h1v2h-1.5c-1.5 0-2.5-1-2.5-2.5v-1.5zM199 28h2v4h-2v-4zM199 22h2v2h-2v-2zM210 27c0-1-1-1.5-2-1.5c-1 0-1.5 0.5-2 1l-1.5-1c0.5-1 2-2 3.5-2c2 0 4 1 4 3.5v5h-2v-1c-0.5 0.5-1.5 1-2.5 1c-2 0-3.5-1-3.5-3c0-2.5 2-3 3.5-3c1 0 2 0.5 2.5 1v0zM208 30c1 0 2-0.5 2-1.5v-0.5c0-1-1-1.5-2-1.5c-1 0-2 0.5-2 1.5s1 2 2 2z" fill="#1e88e5"/>
  </g>
</svg>