<?xml version="1.0" encoding="UTF-8" standalone="no"?>
<svg xmlns="http://www.w3.org/2000/svg" width="50" height="50" viewBox="0 0 50 50" fill="none">
  <g>
    <!-- Car silhouette with Cyprus map -->
    <circle cx="25" cy="25" r="23" fill="#1e88e5"/>
    
    <!-- Car silhouette centered inside circle -->
    <path d="M22 28c0 1.1-0.9 2-2 2h-2c-1.1 0-2-0.9-2-2v-1c0-1.1 0.9-2 2-2h2c1.1 0 2 0.9 2 2v1z" fill="#333333"/>
    <path d="M34 28c0 1.1-0.9 2-2 2h-2c-1.1 0-2-0.9-2-2v-1c0-1.1 0.9-2 2-2h2c1.1 0 2 0.9 2 1v2z" fill="#333333"/>
    <path d="M12 22l4-8h18l4 8l2 1v7h-4v-1c0-2.2-1.8-4-4-4s-4 1.8-4 4v1h-6v-1c0-2.2-1.8-4-4-4s-4 1.8-4 4v1h-4v-7l2-1z" fill="white"/>
    
    <!-- Letter C in bold -->
    <path d="M40 25c0 3-2.5 5-5.5 5c-3.5 0-5.5-2-5.5-5s2-5 5.5-5c2.5 0 4.5 1 5 3l-2 1c-0.5-1-1.5-2-3-2c-2 0-3.5 1-3.5 3s1.5 3 3.5 3c1.5 0 2.5-1 3-2l2 1c-0.5 2-2.5 3-5 3z" fill="white"/>
  </g>
</svg>